# 3ds Max Wavefront OBJ Exporter v0.97b - (c)2007 guruware
# File Created: 12.11.2022 11:18:38

mtllib x.mtl

#
# object x
#

v  -0.1969 0.0000 -88.6075
v  8.6199 2.8647 -88.6075
v  6.8566 5.2918 -76.6075
v  -0.1969 3.0000 -76.6075
v  14.0690 10.3647 -88.6075
v  11.2158 11.2918 -76.6075
v  14.0690 19.6353 -88.6075
v  11.2158 18.7082 -76.6075
v  8.6199 27.1353 -88.6075
v  6.8566 24.7082 -76.6075
v  -0.1969 30.0000 -88.6075
v  -0.1969 27.0000 -76.6075
v  -9.0136 27.1353 -88.6075
v  -7.2503 24.7082 -76.6075
v  -14.4627 19.6353 -88.6075
v  -11.6095 18.7082 -76.6075
v  -14.4627 10.3647 -88.6075
v  -11.6095 11.2918 -76.6075
v  -9.0136 2.8647 -88.6075
v  -7.2503 5.2918 -76.6075
v  5.0932 7.7188 -64.6075
v  -0.1969 6.0000 -64.6075
v  8.3627 12.2188 -64.6075
v  8.3627 17.7812 -64.6075
v  5.0932 22.2812 -64.6075
v  -0.1969 24.0000 -64.6075
v  -5.4869 22.2812 -64.6075
v  -8.7564 17.7812 -64.6075
v  -8.7564 12.2188 -64.6075
v  -5.4869 7.7188 -64.6075
v  3.3299 10.1459 -52.6075
v  -0.1968 9.0000 -52.6075
v  5.5095 13.1459 -52.6075
v  5.5095 16.8541 -52.6075
v  3.3299 19.8541 -52.6075
v  -0.1968 21.0000 -52.6075
v  -3.7236 19.8541 -52.6075
v  -5.9032 16.8541 -52.6075
v  -5.9032 13.1459 -52.6075
v  -3.7236 10.1459 -52.6075
v  1.5665 12.5729 -40.6075
v  -0.1968 12.0000 -40.6075
v  2.6563 14.0729 -40.6075
v  2.6563 15.9271 -40.6075
v  1.5665 17.4271 -40.6075
v  -0.1968 18.0000 -40.6075
v  -1.9602 17.4271 -40.6075
v  -3.0500 15.9271 -40.6075
v  -3.0500 14.0729 -40.6075
v  -1.9602 12.5729 -40.6075
v  -0.1968 15.0000 -28.6075
v  -0.1969 15.0000 -88.6075
# 52 vertices

vn 0.0000 -0.9701 0.2425
vn 0.5702 -0.7849 0.2425
vn 0.9227 -0.2998 0.2425
vn 0.9227 0.2998 0.2425
vn 0.5702 0.7849 0.2425
vn -0.0000 0.9701 0.2425
vn -0.5702 0.7849 0.2425
vn -0.9227 0.2998 0.2425
vn -0.9227 -0.2998 0.2425
vn -0.5702 -0.7849 0.2425
vn 0.0000 -0.0000 1.0000
vn -0.0000 -0.0000 -1.0000
# 12 vertex normals

vt 0.9004 0.7829 1.0000
vt 0.9167 0.7829 1.0000
vt 0.9167 0.8036 0.8000
vt 0.9004 0.8036 0.8000
vt 0.9330 0.7829 1.0000
vt 0.9330 0.8036 0.8000
vt 0.9493 0.7829 1.0000
vt 0.9493 0.8036 0.8000
vt 0.7862 0.7829 1.0000
vt 0.8026 0.7829 1.0000
vt 0.8026 0.8036 0.8000
vt 0.7862 0.8036 0.8000
vt 0.8189 0.7829 1.0000
vt 0.8189 0.8036 0.8000
vt 0.8352 0.7829 1.0000
vt 0.8352 0.8036 0.8000
vt 0.8515 0.7829 1.0000
vt 0.8515 0.8036 0.8000
vt 0.8678 0.7829 1.0000
vt 0.8678 0.8036 0.8000
vt 0.8841 0.7829 1.0000
vt 0.8841 0.8036 0.8000
vt 0.9167 0.8244 0.6000
vt 0.9004 0.8244 0.6000
vt 0.9330 0.8244 0.6000
vt 0.9493 0.8244 0.6000
vt 0.8026 0.8244 0.6000
vt 0.7862 0.8244 0.6000
vt 0.8189 0.8244 0.6000
vt 0.8352 0.8244 0.6000
vt 0.8515 0.8244 0.6000
vt 0.8678 0.8244 0.6000
vt 0.8841 0.8244 0.6000
vt 0.9167 0.8451 0.4000
vt 0.9004 0.8451 0.4000
vt 0.9330 0.8451 0.4000
vt 0.9493 0.8451 0.4000
vt 0.8026 0.8451 0.4000
vt 0.7862 0.8451 0.4000
vt 0.8189 0.8451 0.4000
vt 0.8352 0.8451 0.4000
vt 0.8515 0.8451 0.4000
vt 0.8678 0.8451 0.4000
vt 0.8841 0.8451 0.4000
vt 0.9167 0.8659 0.2000
vt 0.9004 0.8659 0.2000
vt 0.9330 0.8659 0.2000
vt 0.9493 0.8659 0.2000
vt 0.8026 0.8659 0.2000
vt 0.7862 0.8659 0.2000
vt 0.8189 0.8659 0.2000
vt 0.8352 0.8659 0.2000
vt 0.8515 0.8659 0.2000
vt 0.8678 0.8659 0.2000
vt 0.8841 0.8659 0.2000
vt 0.8596 0.8866 0.0000
vt 0.9205 0.9055 0.2000
vt 0.7738 0.9055 0.2000
vt 0.8471 0.9263 0.0000
vt 0.7210 0.7829 1.0000
vt 0.8107 0.7829 1.0000
vt 0.7373 0.7829 1.0000
vt 0.7699 0.7829 1.0000
vt 0.7536 0.7829 1.0000
# 64 texture coords

g x
usemtl Material__25
s 8
f 1/1/1 2/2/2 3/3/2 
f 3/3/2 4/4/1 1/1/1 
f 2/2/2 5/5/3 6/6/3 
f 6/6/3 3/3/2 2/2/2 
f 5/5/3 7/7/4 8/8/4 
f 8/8/4 6/6/3 5/5/3 
f 7/9/4 9/10/5 10/11/5 
f 10/11/5 8/12/4 7/9/4 
f 9/10/5 11/13/6 12/14/6 
f 12/14/6 10/11/5 9/10/5 
f 11/13/6 13/15/7 14/16/7 
f 14/16/7 12/14/6 11/13/6 
f 13/15/7 15/17/8 16/18/8 
f 16/18/8 14/16/7 13/15/7 
f 15/17/8 17/19/9 18/20/9 
f 18/20/9 16/18/8 15/17/8 
f 17/19/9 19/21/10 20/22/10 
f 20/22/10 18/20/9 17/19/9 
f 19/21/10 1/1/1 4/4/1 
f 4/4/1 20/22/10 19/21/10 
f 4/4/1 3/3/2 21/23/2 
f 21/23/2 22/24/1 4/4/1 
f 3/3/2 6/6/3 23/25/3 
f 23/25/3 21/23/2 3/3/2 
f 6/6/3 8/8/4 24/26/4 
f 24/26/4 23/25/3 6/6/3 
f 8/12/4 10/11/5 25/27/5 
f 25/27/5 24/28/4 8/12/4 
f 10/11/5 12/14/6 26/29/6 
f 26/29/6 25/27/5 10/11/5 
f 12/14/6 14/16/7 27/30/7 
f 27/30/7 26/29/6 12/14/6 
f 14/16/7 16/18/8 28/31/8 
f 28/31/8 27/30/7 14/16/7 
f 16/18/8 18/20/9 29/32/9 
f 29/32/9 28/31/8 16/18/8 
f 18/20/9 20/22/10 30/33/10 
f 30/33/10 29/32/9 18/20/9 
f 20/22/10 4/4/1 22/24/1 
f 22/24/1 30/33/10 20/22/10 
f 22/24/1 21/23/2 31/34/2 
f 31/34/2 32/35/1 22/24/1 
f 21/23/2 23/25/3 33/36/3 
f 33/36/3 31/34/2 21/23/2 
f 23/25/3 24/26/4 34/37/4 
f 34/37/4 33/36/3 23/25/3 
f 24/28/4 25/27/5 35/38/5 
f 35/38/5 34/39/4 24/28/4 
f 25/27/5 26/29/6 36/40/6 
f 36/40/6 35/38/5 25/27/5 
f 26/29/6 27/30/7 37/41/7 
f 37/41/7 36/40/6 26/29/6 
f 27/30/7 28/31/8 38/42/8 
f 38/42/8 37/41/7 27/30/7 
f 28/31/8 29/32/9 39/43/9 
f 39/43/9 38/42/8 28/31/8 
f 29/32/9 30/33/10 40/44/10 
f 40/44/10 39/43/9 29/32/9 
f 30/33/10 22/24/1 32/35/1 
f 32/35/1 40/44/10 30/33/10 
f 32/35/1 31/34/2 41/45/2 
f 41/45/2 42/46/1 32/35/1 
f 31/34/2 33/36/3 43/47/3 
f 43/47/3 41/45/2 31/34/2 
f 33/36/3 34/37/4 44/48/4 
f 44/48/4 43/47/3 33/36/3 
f 34/39/4 35/38/5 45/49/5 
f 45/49/5 44/50/4 34/39/4 
f 35/38/5 36/40/6 46/51/6 
f 46/51/6 45/49/5 35/38/5 
f 36/40/6 37/41/7 47/52/7 
f 47/52/7 46/51/6 36/40/6 
f 37/41/7 38/42/8 48/53/8 
f 48/53/8 47/52/7 37/41/7 
f 38/42/8 39/43/9 49/54/9 
f 49/54/9 48/53/8 38/42/8 
f 39/43/9 40/44/10 50/55/10 
f 50/55/10 49/54/9 39/43/9 
f 40/44/10 32/35/1 42/46/1 
f 42/46/1 50/55/10 40/44/10 
f 42/46/1 41/45/2 51/56/11 
f 41/45/2 43/47/3 51/56/11 
f 43/57/3 44/58/4 51/59/11 
f 44/50/4 45/49/5 51/56/11 
f 45/49/5 46/51/6 51/56/11 
f 46/51/6 47/52/7 51/56/11 
f 47/52/7 48/53/8 51/56/11 
f 48/53/8 49/54/9 51/56/11 
f 49/54/9 50/55/10 51/56/11 
f 50/55/10 42/46/1 51/56/11 
s 1
f 19/60/12 52/61/12 1/62/12 
f 15/17/12 13/15/12 52/61/12 
f 7/9/12 5/63/12 52/61/12 
f 52/61/12 2/64/12 1/62/12 
f 19/60/12 17/19/12 52/61/12 
f 52/61/12 11/13/12 9/10/12 
f 13/15/12 11/13/12 52/61/12 
f 52/61/12 5/63/12 2/64/12 
f 17/19/12 15/17/12 52/61/12 
f 52/61/12 9/10/12 7/9/12 
# 100 faces

