# 3ds Max Wavefront OBJ Exporter v0.97b - (c)2007 guruware
# File Created: 12.11.2022 11:18:27

mtllib z.mtl

#
# object z
#

v  -87.6232 30.0000 -1.1811
v  -87.6232 27.1353 7.6357
v  -75.6232 24.7082 5.8723
v  -75.6232 27.0000 -1.1811
v  -87.6232 19.6353 13.0847
v  -75.6232 18.7082 10.2316
v  -87.6232 10.3647 13.0847
v  -75.6232 11.2918 10.2316
v  -87.6232 2.8647 7.6357
v  -75.6232 5.2918 5.8723
v  -87.6232 -0.0000 -1.1811
v  -75.6232 3.0000 -1.1811
v  -87.6232 2.8647 -9.9979
v  -75.6232 5.2918 -8.2345
v  -87.6232 10.3647 -15.4470
v  -75.6232 11.2918 -12.5938
v  -87.6232 19.6353 -15.4470
v  -75.6232 18.7082 -12.5938
v  -87.6232 27.1353 -9.9979
v  -75.6232 24.7082 -8.2345
v  -63.6232 22.2812 4.1090
v  -63.6232 24.0000 -1.1811
v  -63.6232 17.7812 7.3784
v  -63.6232 12.2188 7.3784
v  -63.6232 7.7188 4.1090
v  -63.6232 6.0000 -1.1811
v  -63.6232 7.7188 -6.4712
v  -63.6232 12.2188 -9.7406
v  -63.6232 17.7812 -9.7406
v  -63.6232 22.2812 -6.4712
v  -51.6232 19.8541 2.3456
v  -51.6232 21.0000 -1.1811
v  -51.6232 16.8541 4.5252
v  -51.6232 13.1459 4.5252
v  -51.6232 10.1459 2.3456
v  -51.6232 9.0000 -1.1811
v  -51.6232 10.1459 -4.7078
v  -51.6232 13.1459 -6.8874
v  -51.6232 16.8541 -6.8874
v  -51.6232 19.8541 -4.7078
v  -39.6232 17.4270 0.5823
v  -39.6232 18.0000 -1.1811
v  -39.6232 15.9270 1.6721
v  -39.6232 14.0729 1.6721
v  -39.6232 12.5729 0.5823
v  -39.6232 12.0000 -1.1811
v  -39.6232 12.5729 -2.9445
v  -39.6232 14.0729 -4.0343
v  -39.6232 15.9270 -4.0343
v  -39.6232 17.4270 -2.9445
v  -27.6232 15.0000 -1.1811
v  -87.6232 15.0000 -1.1811
# 52 vertices

vn 0.2425 0.9701 0.0000
vn 0.2425 0.7849 0.5702
vn 0.2425 0.2998 0.9227
vn 0.2425 -0.2998 0.9227
vn 0.2425 -0.7849 0.5702
vn 0.2425 -0.9701 -0.0000
vn 0.2425 -0.7849 -0.5702
vn 0.2425 -0.2998 -0.9227
vn 0.2425 0.2998 -0.9227
vn 0.2425 0.7849 -0.5702
vn 1.0000 0.0000 0.0000
vn -1.0000 -0.0000 -0.0000
# 12 vertex normals

vt 0.5791 0.7478 1.0000
vt 0.6077 0.7478 1.0000
vt 0.6077 0.7843 0.8000
vt 0.5791 0.7843 0.8000
vt 0.6363 0.7478 1.0000
vt 0.6363 0.7843 0.8000
vt 0.6649 0.7478 1.0000
vt 0.6649 0.7843 0.8000
vt 0.3789 0.7478 1.0000
vt 0.4075 0.7478 1.0000
vt 0.4075 0.7843 0.8000
vt 0.3789 0.7843 0.8000
vt 0.4361 0.7478 1.0000
vt 0.4361 0.7843 0.8000
vt 0.4647 0.7478 1.0000
vt 0.4647 0.7843 0.8000
vt 0.4933 0.7478 1.0000
vt 0.4933 0.7843 0.8000
vt 0.5219 0.7478 1.0000
vt 0.5219 0.7843 0.8000
vt 0.5505 0.7478 1.0000
vt 0.5505 0.7843 0.8000
vt 0.6077 0.8207 0.6000
vt 0.5791 0.8207 0.6000
vt 0.6363 0.8207 0.6000
vt 0.6649 0.8207 0.6000
vt 0.4075 0.8207 0.6000
vt 0.3789 0.8207 0.6000
vt 0.4361 0.8207 0.6000
vt 0.4647 0.8207 0.6000
vt 0.4933 0.8207 0.6000
vt 0.5219 0.8207 0.6000
vt 0.5505 0.8207 0.6000
vt 0.6077 0.8571 0.4000
vt 0.5791 0.8571 0.4000
vt 0.6363 0.8571 0.4000
vt 0.6649 0.8571 0.4000
vt 0.4075 0.8571 0.4000
vt 0.3789 0.8571 0.4000
vt 0.4361 0.8571 0.4000
vt 0.4647 0.8571 0.4000
vt 0.4933 0.8571 0.4000
vt 0.5219 0.8571 0.4000
vt 0.5505 0.8571 0.4000
vt 0.6077 0.8935 0.2000
vt 0.5791 0.8935 0.2000
vt 0.6363 0.8935 0.2000
vt 0.6649 0.8935 0.2000
vt 0.4075 0.8935 0.2000
vt 0.3789 0.8935 0.2000
vt 0.4361 0.8935 0.2000
vt 0.4647 0.8935 0.2000
vt 0.4933 0.8935 0.2000
vt 0.5219 0.8935 0.2000
vt 0.5505 0.8935 0.2000
vt 0.5076 0.9299 0.0000
vt 0.6720 0.9009 0.2000
vt 0.4146 0.9009 0.2000
vt 0.5433 0.9373 0.0000
vt 0.3856 0.7395 1.0000
vt 0.5429 0.7395 1.0000
vt 0.4142 0.7395 1.0000
vt 0.4218 0.7478 1.0000
vt 0.5000 0.7395 1.0000
vt 0.4714 0.7395 1.0000
vt 0.4428 0.7395 1.0000
vt 0.6430 0.7395 1.0000
# 67 texture coords

g z
usemtl Material__25
s 8
f 1/1/1 2/2/2 3/3/2 
f 3/3/2 4/4/1 1/1/1 
f 2/2/2 5/5/3 6/6/3 
f 6/6/3 3/3/2 2/2/2 
f 5/5/3 7/7/4 8/8/4 
f 8/8/4 6/6/3 5/5/3 
f 7/9/4 9/10/5 10/11/5 
f 10/11/5 8/12/4 7/9/4 
f 9/10/5 11/13/6 12/14/6 
f 12/14/6 10/11/5 9/10/5 
f 11/13/6 13/15/7 14/16/7 
f 14/16/7 12/14/6 11/13/6 
f 13/15/7 15/17/8 16/18/8 
f 16/18/8 14/16/7 13/15/7 
f 15/17/8 17/19/9 18/20/9 
f 18/20/9 16/18/8 15/17/8 
f 17/19/9 19/21/10 20/22/10 
f 20/22/10 18/20/9 17/19/9 
f 19/21/10 1/1/1 4/4/1 
f 4/4/1 20/22/10 19/21/10 
f 4/4/1 3/3/2 21/23/2 
f 21/23/2 22/24/1 4/4/1 
f 3/3/2 6/6/3 23/25/3 
f 23/25/3 21/23/2 3/3/2 
f 6/6/3 8/8/4 24/26/4 
f 24/26/4 23/25/3 6/6/3 
f 8/12/4 10/11/5 25/27/5 
f 25/27/5 24/28/4 8/12/4 
f 10/11/5 12/14/6 26/29/6 
f 26/29/6 25/27/5 10/11/5 
f 12/14/6 14/16/7 27/30/7 
f 27/30/7 26/29/6 12/14/6 
f 14/16/7 16/18/8 28/31/8 
f 28/31/8 27/30/7 14/16/7 
f 16/18/8 18/20/9 29/32/9 
f 29/32/9 28/31/8 16/18/8 
f 18/20/9 20/22/10 30/33/10 
f 30/33/10 29/32/9 18/20/9 
f 20/22/10 4/4/1 22/24/1 
f 22/24/1 30/33/10 20/22/10 
f 22/24/1 21/23/2 31/34/2 
f 31/34/2 32/35/1 22/24/1 
f 21/23/2 23/25/3 33/36/3 
f 33/36/3 31/34/2 21/23/2 
f 23/25/3 24/26/4 34/37/4 
f 34/37/4 33/36/3 23/25/3 
f 24/28/4 25/27/5 35/38/5 
f 35/38/5 34/39/4 24/28/4 
f 25/27/5 26/29/6 36/40/6 
f 36/40/6 35/38/5 25/27/5 
f 26/29/6 27/30/7 37/41/7 
f 37/41/7 36/40/6 26/29/6 
f 27/30/7 28/31/8 38/42/8 
f 38/42/8 37/41/7 27/30/7 
f 28/31/8 29/32/9 39/43/9 
f 39/43/9 38/42/8 28/31/8 
f 29/32/9 30/33/10 40/44/10 
f 40/44/10 39/43/9 29/32/9 
f 30/33/10 22/24/1 32/35/1 
f 32/35/1 40/44/10 30/33/10 
f 32/35/1 31/34/2 41/45/2 
f 41/45/2 42/46/1 32/35/1 
f 31/34/2 33/36/3 43/47/3 
f 43/47/3 41/45/2 31/34/2 
f 33/36/3 34/37/4 44/48/4 
f 44/48/4 43/47/3 33/36/3 
f 34/39/4 35/38/5 45/49/5 
f 45/49/5 44/50/4 34/39/4 
f 35/38/5 36/40/6 46/51/6 
f 46/51/6 45/49/5 35/38/5 
f 36/40/6 37/41/7 47/52/7 
f 47/52/7 46/51/6 36/40/6 
f 37/41/7 38/42/8 48/53/8 
f 48/53/8 47/52/7 37/41/7 
f 38/42/8 39/43/9 49/54/9 
f 49/54/9 48/53/8 38/42/8 
f 39/43/9 40/44/10 50/55/10 
f 50/55/10 49/54/9 39/43/9 
f 40/44/10 32/35/1 42/46/1 
f 42/46/1 50/55/10 40/44/10 
f 42/46/1 41/45/2 51/56/11 
f 41/45/2 43/47/3 51/56/11 
f 43/57/3 44/58/4 51/59/11 
f 44/50/4 45/49/5 51/56/11 
f 45/49/5 46/51/6 51/56/11 
f 46/51/6 47/52/7 51/56/11 
f 47/52/7 48/53/8 51/56/11 
f 48/53/8 49/54/9 51/56/11 
f 49/54/9 50/55/10 51/56/11 
f 50/55/10 42/46/1 51/56/11 
s 1
f 19/60/12 52/61/12 1/62/12 
f 15/17/12 13/15/12 52/63/12 
f 7/64/12 5/65/12 52/61/12 
f 52/61/12 2/66/12 1/62/12 
f 19/60/12 17/67/12 52/61/12 
f 52/63/12 11/13/12 9/10/12 
f 13/15/12 11/13/12 52/63/12 
f 52/61/12 5/65/12 2/66/12 
f 17/19/12 15/17/12 52/63/12 
f 52/63/12 9/10/12 7/9/12 
# 100 faces

